<?xml version="1.0" encoding="UTF-8"?>
<svg id="svg1" width="16" height="16" gpa:keywords="view-list-bullet" gpa:state="0" gpa:version="1" version="1.1" xmlns="http://www.w3.org/2000/svg" xmlns:gpa="https://www.gtk.org/grappa">
 <style id="style1" type="text/css">.not-initial-state {
      display: none;
    }</style>
 <path id="path16" d="m7 12c-0.55228 0-1 0.44772-1 1s0.44772 1 1 1h7c0.55228 0 1-0.44772 1-1s-0.44772-1-1-1z" stop-color="#000000"/>
 <path id="path14" d="m7 7c-0.55228 0-1 0.44772-1 1s0.44772 1 1 1h7c0.55228 0 1-0.44772 1-1s-0.44772-1-1-1z" stop-color="#000000"/>
 <path id="path12" d="m7 2c-0.55228 0-1 0.44772-1 1s0.44772 1 1 1h7c0.55228 0 1-0.44772 1-1s-0.44772-1-1-1z" stop-color="#000000"/>
 <path id="path3" d="m2.9883 1a1.9883 1.9883 0 0 0-1.9883 1.9883 1.9883 1.9883 0 0 0 1.9883 1.9883h0.023301a1.9883 1.9883 0 0 0 1.9883-1.9883 1.9883 1.9883 0 0 0-1.9883-1.9883z" stop-color="#000000" stroke-width="1.9884"/>
 <path id="path3-5" d="m2.9883 6a1.9883 1.9883 0 0 0-1.9883 1.9883 1.9883 1.9883 0 0 0 1.9883 1.9883h0.023301a1.9883 1.9883 0 0 0 1.9883-1.9883 1.9883 1.9883 0 0 0-1.9883-1.9883z" stop-color="#000000" stroke-width="1.9884"/>
 <path id="path3-2" d="m2.9883 11a1.9883 1.9883 0 0 0-1.9883 1.9883 1.9883 1.9883 0 0 0 1.9883 1.9883h0.023301a1.9883 1.9883 0 0 0 1.9883-1.9883 1.9883 1.9883 0 0 0-1.9883-1.9883z" stop-color="#000000" stroke-width="1.9884"/>
</svg>
