<?xml version="1.0" encoding="UTF-8"?>
<svg id="svg1" width="16" height="16" gpa:keywords="view-list-bullet" gpa:state="0" gpa:version="1" version="1.1" xmlns="http://www.w3.org/2000/svg" xmlns:gpa="https://www.gtk.org/grappa">
 <style id="style1" type="text/css">.not-initial-state {
      display: none;
    }</style>
 <path id="path16" d="m9 3.9767c0.55228 0 1-0.44772 1-1s-0.44772-1-1-1h-7c-0.55228 0-1 0.44772-1 1s0.44772 1 1 1z" stop-color="#000000"/>
 <path id="path14" d="m9 8.9767c0.55228 0 1-0.44772 1-1s-0.44772-1-1-1h-7c-0.55228 0-1 0.44772-1 1s0.44772 1 1 1z" stop-color="#000000"/>
 <path id="path12" d="m9 13.977c0.55228 0 1-0.44772 1-1s-0.44772-1-1-1h-7c-0.55228 0-1 0.44772-1 1s0.44772 1 1 1z" stop-color="#000000"/>
 <path id="path3" d="m13.012 14.977a1.9883 1.9883 0 0 0 1.9883-1.9883 1.9883 1.9883 0 0 0-1.9883-1.9883h-0.0233a1.9883 1.9883 0 0 0-1.9884 1.9883 1.9883 1.9883 0 0 0 1.9883 1.9883z" stop-color="#000000" stroke-width="1.9884"/>
 <path id="path3-5" d="m13.012 9.9767a1.9883 1.9883 0 0 0 1.9883-1.9883 1.9883 1.9883 0 0 0-1.9883-1.9883h-0.0233a1.9883 1.9883 0 0 0-1.9884 1.9883 1.9883 1.9883 0 0 0 1.9883 1.9883z" stop-color="#000000" stroke-width="1.9884"/>
 <path id="path3-2" d="m13.012 4.9767a1.9883 1.9883 0 0 0 1.9883-1.9883 1.9883 1.9883 0 0 0-1.9883-1.9883h-0.0233a1.9883 1.9883 0 0 0-1.9884 1.9883 1.9883 1.9883 0 0 0 1.9883 1.9883z" stop-color="#000000" stroke-width="1.9884"/>
</svg>
